<?xml version="1.0" encoding="UTF-8"?>
<svg width="24px" height="24px" viewBox="0 0 24 24" version="1.1" xmlns="http://www.w3.org/2000/svg" xmlns:xlink="http://www.w3.org/1999/xlink">
    <title>C7E8FCF0-BB44-4314-AF8B-7FA37E8BB0B2</title>
    <g id="💎-UI-components" stroke="none" stroke-width="1" fill="none" fill-rule="evenodd">
        <g id="Icons" transform="translate(-264.000000, -384.000000)" fill="#0A1F44">
            <g transform="translate(208.000000, 160.000000)" id="Icon">
                <g transform="translate(56.000000, 224.000000)">
                    <path d="M12,20 C16.418278,20 20,16.418278 20,12 C20,7.581722 16.418278,4 12,4 C7.581722,4 4,7.581722 4,12 C4,16.418278 7.581722,20 12,20 Z M12,2 C17.5228475,2 22,6.4771525 22,12 C22,17.5228475 17.5228475,22 12,22 C6.4771525,22 2,17.5228475 2,12 C2,6.4771525 6.4771525,2 12,2 Z M12,10.5 C11.4477153,10.5 11,10.9477153 11,11.5 L11,11.5 L11,15.5 C11,16.0522847 11.4477153,16.5 12,16.5 C12.5522847,16.5 13,16.0522847 13,15.5 L13,15.5 L13,11.5 C13,10.9477153 12.5522847,10.5 12,10.5 Z M12,7 C11.4477153,7 11,7.44771525 11,8 C11,8.55228475 11.4477153,9 12,9 C12.5522847,9 13,8.55228475 13,8 C13,7.44771525 12.5522847,7 12,7 Z" id="🎨-Icon-style"></path>
                </g>
            </g>
        </g>
    </g>
</svg>