<?xml version="1.0" encoding="UTF-8"?>
<svg width="24px" height="24px" viewBox="0 0 24 24" version="1.1" xmlns="http://www.w3.org/2000/svg" xmlns:xlink="http://www.w3.org/1999/xlink">
    <title>85B2D935-750E-4E21-9108-0E288C4686C3</title>
    <g id="💎-UI-components" stroke="none" stroke-width="1" fill="none" fill-rule="evenodd">
        <g id="Icons" transform="translate(-208.000000, -272.000000)" fill="#0A1F44">
            <g transform="translate(208.000000, 160.000000)" id="Icon">
                <g transform="translate(0.000000, 112.000000)">
                    <path d="M11,16 C13.7614237,16 16,13.7614237 16,11 C16,8.23857625 13.7614237,6 11,6 C8.23857625,6 6,8.23857625 6,11 C6,13.7614237 8.23857625,16 11,16 Z M11,4 C14.8659932,4 18,7.13400675 18,11 C18,12.5723496 17.4815869,14.0236173 16.6063605,15.1922034 L19.7071068,18.2928932 C20.0976311,18.6834175 20.0976311,19.3165825 19.7071068,19.7071068 C19.3165825,20.0976311 18.6834175,20.0976311 18.2928932,19.7071068 L15.1922034,16.6063605 C14.0236173,17.4815869 12.5723496,18 11,18 C7.13400675,18 4,14.8659932 4,11 C4,7.13400675 7.13400675,4 11,4 Z" id="🎨-Icon-style"></path>
                </g>
            </g>
        </g>
    </g>
</svg>