<?xml version="1.0" encoding="UTF-8"?>
<svg width="24px" height="24px" viewBox="0 0 24 24" version="1.1" xmlns="http://www.w3.org/2000/svg" xmlns:xlink="http://www.w3.org/1999/xlink">
    <title>E37FE1FB-CD2F-42FB-93ED-AA8DCB9C3195</title>
    <g id="💎-UI-components" stroke="none" stroke-width="1" fill="none" fill-rule="evenodd">
        <g id="Icons" transform="translate(-432.000000, -328.000000)" fill="#0A1F44">
            <g transform="translate(208.000000, 160.000000)" id="Icon">
                <g transform="translate(224.000000, 168.000000)">
                    <path d="M12,20 C16.418278,20 20,16.418278 20,12 C20,7.581722 16.418278,4 12,4 C7.581722,4 4,7.581722 4,12 C4,16.418278 7.581722,20 12,20 Z M12,2 C17.5228475,2 22,6.4771525 22,12 C22,17.5228475 17.5228475,22 12,22 C6.4771525,22 2,17.5228475 2,12 C2,6.4771525 6.4771525,2 12,2 Z M12,6 C11.4477153,6 11,6.44771525 11,7 L11,7 L11,12 C11,12.5522847 11.4477153,13 12,13 L12,13 L17,13 C17.5522847,13 18,12.5522847 18,12 C18,11.4477153 17.5522847,11 17,11 L17,11 L13,11 L13,7 C13,6.44771525 12.5522847,6 12,6 Z" id="🎨-Icon-style"></path>
                </g>
            </g>
        </g>
    </g>
</svg>